<svg
  id="svg"
  xmlns="http://www.w3.org/2000/svg"
  xmlns:xlink="http://www.w3.org/1999/xlink"
  width="400"
  height="400"
  viewBox="0, 0, 400,400"
>
  <style>
    @media (prefers-color-scheme: dark) {
      path {
        fill: white;
      }
    }
  </style>
  <g id="svgg">
    <path
      id="path0"
      d="M188.496 3.221 C 137.914 9.075,96.585 38.125,86.329 75.035 L 84.741 80.748 82.184 81.724 C 68.142 87.087,64.768 108.455,76.206 119.577 C 80.855 124.098,96.715 131.219,98.386 129.536 C 98.882 129.037,98.760 99.050,98.216 87.787 C 97.783 78.812,98.214 77.496,103.718 70.995 C 105.686 68.671,108.961 64.323,110.994 61.333 C 144.979 11.375,227.801 1.915,277.708 42.290 C 286.651 49.525,293.728 57.793,304.948 74.113 L 308.648 79.494 308.580 104.911 L 308.512 130.328 312.516 128.944 C 332.469 122.050,337.893 116.074,337.345 101.588 C 336.975 91.792,333.815 86.644,325.499 82.290 C 322.332 80.632,322.206 80.470,321.345 76.984 C 309.951 30.812,247.880 -3.652,188.496 3.221 M120.168 69.585 C 117.437 70.129,115.207 71.708,113.381 74.391 L 112.012 76.401 112.201 103.459 L 112.389 130.517 115.123 132.991 C 120.998 138.309,127.216 138.105,132.891 132.408 C 135.482 129.807,135.240 133.003,135.166 102.360 C 135.138 90.678,135.112 79.880,135.109 78.364 C 135.097 72.490,127.626 68.101,120.168 69.585 M276.402 70.546 C 270.652 73.545,270.796 72.706,270.796 102.979 C 270.796 132.835,270.670 131.959,275.449 135.277 C 280.562 138.829,290.502 136.685,293.743 131.332 C 295.547 128.353,295.294 76.411,293.464 73.960 C 290.476 69.958,281.121 68.086,276.402 70.546 M232.153 91.253 C 220.028 92.766,212.977 97.580,206.163 108.997 C 202.660 114.866,203.223 114.867,200.000 108.985 C 188.198 87.450,156.847 84.652,146.974 104.254 C 140.606 116.896,159.727 141.028,178.917 144.568 C 185.031 145.696,219.493 145.562,225.664 144.387 C 238.784 141.887,253.808 131.465,258.518 121.596 C 266.671 104.514,252.898 88.664,232.153 91.253 M174.926 107.435 C 181.324 109.179,197.300 135.103,191.977 135.103 C 187.578 135.103,175.782 128.986,170.839 124.142 C 160.700 114.205,163.142 104.221,174.926 107.435 M239.788 108.042 C 248.200 114.659,233.077 131.351,216.619 133.615 C 213.044 134.106,212.793 133.463,214.547 128.313 C 215.458 125.642,216.553 123.603,220.725 116.814 C 225.677 108.755,235.152 104.396,239.788 108.042 M48.083 161.087 C 25.960 163.997,15.116 175.908,16.128 196.185 C 16.975 213.177,27.826 224.487,46.018 227.341 C 48.273 227.695,84.688 227.936,116.667 227.809 L 136.873 227.729 136.873 194.100 L 136.873 160.472 94.248 160.547 C 70.804 160.588,50.029 160.831,48.083 161.087 M176.695 161.064 C 176.494 161.389,176.381 176.588,176.444 194.840 L 176.560 228.024 203.323 228.024 L 230.087 228.024 230.088 194.248 L 230.088 160.472 203.575 160.472 C 186.481 160.472,176.931 160.682,176.695 161.064 M268.437 194.251 L 268.437 228.030 306.342 227.875 C 361.705 227.648,362.260 227.629,367.388 225.794 C 384.977 219.502,391.232 211.414,392.126 193.805 C 392.821 180.133,387.962 170.747,377.425 165.408 C 367.983 160.623,366.020 160.472,313.278 160.472 L 268.437 160.472 268.437 194.251 M38.946 312.537 L 38.954 356.637 40.654 361.521 C 47.586 381.437,67.971 394.200,95.575 395.909 C 99.956 396.180,111.040 396.415,120.206 396.431 L 136.873 396.460 136.873 332.448 L 136.873 268.437 87.906 268.437 L 38.938 268.437 38.946 312.537 M176.401 332.478 L 176.401 396.519 203.246 396.342 C 218.010 396.245,230.090 395.966,230.089 395.723 C 230.089 395.479,230.088 366.740,230.088 331.858 L 230.088 268.437 203.245 268.437 L 176.401 268.437 176.401 332.478 M268.437 332.094 L 268.437 395.751 271.239 396.059 C 275.693 396.548,314.351 395.869,318.584 395.228 C 343.900 391.393,363.804 376.669,368.144 358.566 C 369.254 353.935,369.313 351.520,369.317 311.062 L 369.322 268.437 318.879 268.437 L 268.437 268.437 268.437 332.094 "
      stroke="none"
      fill="#000000"
      fill-rule="evenodd"
    ></path>
  </g>
</svg>
